<?xml version="1.0" encoding="utf-8" standalone="no"?>
<!DOCTYPE svg PUBLIC "-//W3C//DTD SVG 1.1//EN"
  "http://www.w3.org/Graphics/SVG/1.1/DTD/svg11.dtd">
<svg xmlns:xlink="http://www.w3.org/1999/xlink" width="712.37125pt" height="356.4pt" viewBox="0 0 712.37125 356.4" xmlns="http://www.w3.org/2000/svg" version="1.1">
 <metadata>
  <rdf:RDF xmlns:dc="http://purl.org/dc/elements/1.1/" xmlns:cc="http://creativecommons.org/ns#" xmlns:rdf="http://www.w3.org/1999/02/22-rdf-syntax-ns#">
   <cc:Work>
    <dc:type rdf:resource="http://purl.org/dc/dcmitype/StillImage"/>
    <dc:date>2026-09-30T18:37:20.698099</dc:date>
    <dc:format>image/svg+xml</dc:format>
    <dc:creator>
     <cc:Agent>
      <dc:title>Matplotlib v3.10.8, https://matplotlib.org/</dc:title>
     </cc:Agent>
    </dc:creator>
   </cc:Work>
  </rdf:RDF>
 </metadata>
 <defs>
  <style type="text/css">*{stroke-linejoin: round; stroke-linecap: butt}</style>
 </defs>
 <g id="figure_1">
  <g id="patch_1">
   <path d="M 0 356.4 
L 712.37125 356.4 
L 712.37125 0 
L 0 0 
z
" style="fill: #ffffff"/>
  </g>
  <g id="axes_1">
   <g id="patch_2">
    <path d="M 43.78125 349.2 
L 350.57125 349.2 
L 350.57125 62.7855 
L 43.78125 62.7855 
z
" style="fill: #ffffff"/>
   </g>
   <g id="FillBetweenPolyCollection_1">
    <path d="M 252.021946 75.261083 
L 142.330554 75.261083 
L 141.878861 75.260878 
L 141.440189 75.260672 
L 141.013354 75.260467 
L 140.59707 75.260261 
L 140.189953 75.260056 
L 139.79052 75.25985 
L 139.397201 75.259645 
L 139.008339 75.259439 
L 138.6222 75.259234 
L 138.236976 75.259028 
L 137.850796 75.258823 
L 137.461731 75.258617 
L 137.067801 75.258412 
L 136.666987 75.258206 
L 136.257238 75.258001 
L 135.836481 75.257795 
L 135.402628 75.25759 
L 134.95359 75.257384 
L 134.487283 75.257178 
L 134.001642 75.256973 
L 133.49463 75.256767 
L 132.964247 75.256562 
L 132.408543 75.256356 
L 131.825626 75.256151 
L 131.213675 75.255945 
L 130.570952 75.25574 
L 129.895805 75.255534 
L 129.186688 75.255329 
L 128.442162 75.255123 
L 127.660911 75.254918 
L 126.841748 75.254712 
L 125.983623 75.254507 
L 125.085633 75.254301 
L 124.147033 75.254096 
L 123.167235 75.25389 
L 122.145823 75.253685 
L 121.082553 75.253479 
L 119.977365 75.253274 
L 118.83038 75.253068 
L 117.64191 75.252862 
L 116.412458 75.252657 
L 115.142724 75.252451 
L 113.833601 75.252246 
L 112.486183 75.25204 
L 111.101758 75.251835 
L 109.681813 75.251629 
L 108.228028 75.251424 
L 106.742277 75.251218 
L 105.226621 75.251013 
L 103.683309 75.250807 
L 102.114766 75.250602 
L 100.523594 75.250396 
L 98.912561 75.250191 
L 97.284595 75.249985 
L 95.642775 75.24978 
L 93.990324 75.249574 
L 92.330598 75.249369 
L 90.667073 75.249163 
L 89.00334 75.248957 
L 87.343089 75.248752 
L 85.690098 75.248546 
L 84.048221 75.248341 
L 82.421374 75.248135 
L 80.813523 75.24793 
L 79.22867 75.247724 
L 77.670837 75.247519 
L 76.144055 75.247313 
L 74.652348 75.247108 
L 73.199718 75.246902 
L 71.790131 75.246697 
L 70.427505 75.246491 
L 69.115691 75.246286 
L 67.858464 75.24608 
L 66.659504 75.245875 
L 65.522389 75.245669 
L 64.450573 75.245464 
L 63.447382 75.245258 
L 62.515997 75.245053 
L 61.659441 75.244847 
L 60.880571 75.244641 
L 60.182068 75.244436 
L 59.566421 75.24423 
L 59.035926 75.244025 
L 58.592671 75.243819 
L 58.238533 75.243614 
L 57.975168 75.243408 
L 57.804007 75.243203 
L 57.72625 75.242997 
L 57.742862 75.242792 
L 57.854571 75.242586 
L 58.061864 75.242381 
L 58.364987 75.242175 
L 58.763943 75.24197 
L 59.258497 75.241764 
L 59.848171 75.241559 
L 60.532252 75.241353 
L 61.309793 75.241148 
L 62.179616 75.240942 
L 63.14032 75.240736 
L 331.21218 75.240736 
L 331.21218 75.240736 
L 332.172884 75.240942 
L 333.042707 75.241148 
L 333.820248 75.241353 
L 334.504329 75.241559 
L 335.094003 75.241764 
L 335.588557 75.24197 
L 335.987513 75.242175 
L 336.290636 75.242381 
L 336.497929 75.242586 
L 336.609638 75.242792 
L 336.62625 75.242997 
L 336.548493 75.243203 
L 336.377332 75.243408 
L 336.113967 75.243614 
L 335.759829 75.243819 
L 335.316574 75.244025 
L 334.786079 75.24423 
L 334.170432 75.244436 
L 333.471929 75.244641 
L 332.693059 75.244847 
L 331.836503 75.245053 
L 330.905118 75.245258 
L 329.901927 75.245464 
L 328.830111 75.245669 
L 327.692996 75.245875 
L 326.494036 75.24608 
L 325.236809 75.246286 
L 323.924995 75.246491 
L 322.562369 75.246697 
L 321.152782 75.246902 
L 319.700152 75.247108 
L 318.208445 75.247313 
L 316.681663 75.247519 
L 315.12383 75.247724 
L 313.538977 75.24793 
L 311.931126 75.248135 
L 310.304279 75.248341 
L 308.662402 75.248546 
L 307.009411 75.248752 
L 305.34916 75.248957 
L 303.685427 75.249163 
L 302.021902 75.249369 
L 300.362176 75.249574 
L 298.709725 75.24978 
L 297.067905 75.249985 
L 295.439939 75.250191 
L 293.828906 75.250396 
L 292.237734 75.250602 
L 290.669191 75.250807 
L 289.125879 75.251013 
L 287.610223 75.251218 
L 286.124472 75.251424 
L 284.670687 75.251629 
L 283.250742 75.251835 
L 281.866317 75.25204 
L 280.518899 75.252246 
L 279.209776 75.252451 
L 277.940042 75.252657 
L 276.71059 75.252862 
L 275.52212 75.253068 
L 274.375135 75.253274 
L 273.269947 75.253479 
L 272.206677 75.253685 
L 271.185265 75.25389 
L 270.205467 75.254096 
L 269.266867 75.254301 
L 268.368877 75.254507 
L 267.510752 75.254712 
L 266.691589 75.254918 
L 265.910338 75.255123 
L 265.165812 75.255329 
L 264.456695 75.255534 
L 263.781548 75.25574 
L 263.138825 75.255945 
L 262.526874 75.256151 
L 261.943957 75.256356 
L 261.388253 75.256562 
L 260.85787 75.256767 
L 260.350858 75.256973 
L 259.865217 75.257178 
L 259.39891 75.257384 
L 258.949872 75.25759 
L 258.516019 75.257795 
L 258.095262 75.258001 
L 257.685513 75.258206 
L 257.284699 75.258412 
L 256.890769 75.258617 
L 256.501704 75.258823 
L 256.115524 75.259028 
L 255.7303 75.259234 
L 255.344161 75.259439 
L 254.955299 75.259645 
L 254.56198 75.25985 
L 254.162547 75.260056 
L 253.75543 75.260261 
L 253.339146 75.260467 
L 252.912311 75.260672 
L 252.473639 75.260878 
L 252.021946 75.261083 
z
" clip-path="url(#p72d7137e5c)" style="fill: #1f77b4; fill-opacity: 0.3"/>
   </g>
   <g id="PathCollection_1">
    <defs>
     <path id="m6d1f0350d8" d="M 0 1.224745 
C 0.324806 1.224745 0.636353 1.095698 0.866025 0.866025 
C 1.095698 0.636353 1.224745 0.324806 1.224745 0 
C 1.224745 -0.324806 1.095698 -0.636353 0.866025 -0.866025 
C 0.636353 -1.095698 0.324806 -1.224745 0 -1.224745 
C -0.324806 -1.224745 -0.636353 -1.095698 -0.866025 -0.866025 
C -1.095698 -0.636353 -1.224745 -0.324806 -1.224745 0 
C -1.224745 0.324806 -1.095698 0.636353 -0.866025 0.866025 
C -0.636353 1.095698 -0.324806 1.224745 0 1.224745 
z
" style="stroke: #4682b4; stroke-opacity: 0.3"/>
    </defs>
    <g clip-path="url(#p72d7137e5c)">
     <use xlink:href="#m6d1f0350d8" x="194.201907" y="75.240736" style="fill: #4682b4; fill-opacity: 0.3; stroke: #4682b4; stroke-opacity: 0.3"/>
     <use xlink:href="#m6d1f0350d8" x="220.578801" y="75.241687" style="fill: #4682b4; fill-opacity: 0.3; stroke: #4682b4; stroke-opacity: 0.3"/>
     <use xlink:href="#m6d1f0350d8" x="197.910029" y="75.261083" style="fill: #4682b4; fill-opacity: 0.3; stroke: #4682b4; stroke-opacity: 0.3"/>
     <use xlink:href="#m6d1f0350d8" x="180.963449" y="75.245733" style="fill: #4682b4; fill-opacity: 0.3; stroke: #4682b4; stroke-opacity: 0.3"/>
    </g>
   </g>
   <g id="matplotlib.axis_1"/>
   <g id="matplotlib.axis_2">
    <g id="ytick_1">
     <g id="line2d_1">
      <defs>
       <path id="m4677f0c5ab" d="M 0 0 
L -3.5 0 
" style="stroke: #000000; stroke-width: 0.8"/>
      </defs>
      <g>
       <use xlink:href="#m4677f0c5ab" x="43.78125" y="324.294391" style="stroke: #000000; stroke-width: 0.8"/>
      </g>
     </g>
     <g id="text_1">
      <text style="font-size: 10px; font-family: 'DejaVu Sans', 'Bitstream Vera Sans', 'Computer Modern Sans Serif', 'Lucida Grande', 'Verdana', 'Geneva', 'Lucid', 'Arial', 'Helvetica', 'Avant Garde', sans-serif; text-anchor: end" x="36.78125" y="328.09361" transform="rotate(-0 36.78125 328.09361)">0.0</text>
     </g>
    </g>
    <g id="ytick_2">
     <g id="line2d_2">
      <g>
       <use xlink:href="#m4677f0c5ab" x="43.78125" y="274.483174" style="stroke: #000000; stroke-width: 0.8"/>
      </g>
     </g>
     <g id="text_2">
      <text style="font-size: 10px; font-family: 'DejaVu Sans', 'Bitstream Vera Sans', 'Computer Modern Sans Serif', 'Lucida Grande', 'Verdana', 'Geneva', 'Lucid', 'Arial', 'Helvetica', 'Avant Garde', sans-serif; text-anchor: end" x="36.78125" y="278.282393" transform="rotate(-0 36.78125 278.282393)">0.2</text>
     </g>
    </g>
    <g id="ytick_3">
     <g id="line2d_3">
      <g>
       <use xlink:href="#m4677f0c5ab" x="43.78125" y="224.671957" style="stroke: #000000; stroke-width: 0.8"/>
      </g>
     </g>
     <g id="text_3">
      <text style="font-size: 10px; font-family: 'DejaVu Sans', 'Bitstream Vera Sans', 'Computer Modern Sans Serif', 'Lucida Grande', 'Verdana', 'Geneva', 'Lucid', 'Arial', 'Helvetica', 'Avant Garde', sans-serif; text-anchor: end" x="36.78125" y="228.471175" transform="rotate(-0 36.78125 228.471175)">0.4</text>
     </g>
    </g>
    <g id="ytick_4">
     <g id="line2d_4">
      <g>
       <use xlink:href="#m4677f0c5ab" x="43.78125" y="174.860739" style="stroke: #000000; stroke-width: 0.8"/>
      </g>
     </g>
     <g id="text_4">
      <text style="font-size: 10px; font-family: 'DejaVu Sans', 'Bitstream Vera Sans', 'Computer Modern Sans Serif', 'Lucida Grande', 'Verdana', 'Geneva', 'Lucid', 'Arial', 'Helvetica', 'Avant Garde', sans-serif; text-anchor: end" x="36.78125" y="178.659958" transform="rotate(-0 36.78125 178.659958)">0.6</text>
     </g>
    </g>
    <g id="ytick_5">
     <g id="line2d_5">
      <g>
       <use xlink:href="#m4677f0c5ab" x="43.78125" y="125.049522" style="stroke: #000000; stroke-width: 0.8"/>
      </g>
     </g>
     <g id="text_5">
      <text style="font-size: 10px; font-family: 'DejaVu Sans', 'Bitstream Vera Sans', 'Computer Modern Sans Serif', 'Lucida Grande', 'Verdana', 'Geneva', 'Lucid', 'Arial', 'Helvetica', 'Avant Garde', sans-serif; text-anchor: end" x="36.78125" y="128.84874" transform="rotate(-0 36.78125 128.84874)">0.8</text>
     </g>
    </g>
    <g id="ytick_6">
     <g id="line2d_6">
      <g>
       <use xlink:href="#m4677f0c5ab" x="43.78125" y="75.238304" style="stroke: #000000; stroke-width: 0.8"/>
      </g>
     </g>
     <g id="text_6">
      <text style="font-size: 10px; font-family: 'DejaVu Sans', 'Bitstream Vera Sans', 'Computer Modern Sans Serif', 'Lucida Grande', 'Verdana', 'Geneva', 'Lucid', 'Arial', 'Helvetica', 'Avant Garde', sans-serif; text-anchor: end" x="36.78125" y="79.037523" transform="rotate(-0 36.78125 79.037523)">1.0</text>
     </g>
    </g>
    <g id="text_7">
     <text style="font-size: 10px; font-family: 'DejaVu Sans', 'Bitstream Vera Sans', 'Computer Modern Sans Serif', 'Lucida Grande', 'Verdana', 'Geneva', 'Lucid', 'Arial', 'Helvetica', 'Avant Garde', sans-serif; text-anchor: middle" x="14.798438" y="205.99275" transform="rotate(-90 14.798438 205.99275)">r</text>
    </g>
   </g>
   <g id="LineCollection_1">
    <path d="M 127.45125 75.240736 
L 266.90125 75.240736 
" clip-path="url(#p72d7137e5c)" style="fill: none; stroke: #1f77b4; stroke-width: 1.5"/>
   </g>
   <g id="LineCollection_2">
    <path d="M 127.45125 75.261083 
L 266.90125 75.261083 
" clip-path="url(#p72d7137e5c)" style="fill: none; stroke: #1f77b4; stroke-width: 1.5"/>
   </g>
   <g id="LineCollection_3">
    <path d="M 197.17625 75.261083 
L 197.17625 75.240736 
" clip-path="url(#p72d7137e5c)" style="fill: none; stroke: #1f77b4; stroke-width: 1.5"/>
   </g>
   <g id="LineCollection_4">
    <path d="M 127.45125 75.24371 
L 266.90125 75.24371 
" clip-path="url(#p72d7137e5c)" style="fill: none; stroke: #1f77b4; stroke-width: 1.5"/>
   </g>
   <g id="line2d_7">
    <path d="M 43.78125 125.049522 
L 350.57125 125.049522 
" clip-path="url(#p72d7137e5c)" style="fill: none; stroke-dasharray: 5.55,2.4; stroke-dashoffset: 0; stroke: #ff0000; stroke-opacity: 0.7; stroke-width: 1.5"/>
   </g>
   <g id="patch_3">
    <path d="M 43.78125 349.2 
L 43.78125 62.7855 
" style="fill: none; stroke: #000000; stroke-width: 0.8; stroke-linejoin: miter; stroke-linecap: square"/>
   </g>
   <g id="patch_4">
    <path d="M 350.57125 349.2 
L 350.57125 62.7855 
" style="fill: none; stroke: #000000; stroke-width: 0.8; stroke-linejoin: miter; stroke-linecap: square"/>
   </g>
   <g id="patch_5">
    <path d="M 43.78125 349.2 
L 350.57125 349.2 
" style="fill: none; stroke: #000000; stroke-width: 0.8; stroke-linejoin: miter; stroke-linecap: square"/>
   </g>
   <g id="patch_6">
    <path d="M 43.78125 62.7855 
L 350.57125 62.7855 
" style="fill: none; stroke: #000000; stroke-width: 0.8; stroke-linejoin: miter; stroke-linecap: square"/>
   </g>
   <g id="text_8">
    <text style="font-size: 12px; font-family: 'DejaVu Sans', 'Bitstream Vera Sans', 'Computer Modern Sans Serif', 'Lucida Grande', 'Verdana', 'Geneva', 'Lucid', 'Arial', 'Helvetica', 'Avant Garde', sans-serif" transform="translate(160.086875 43.014375)">by_cell_type</text>
    <text style="font-size: 12px; font-family: 'DejaVu Sans', 'Bitstream Vera Sans', 'Computer Modern Sans Serif', 'Lucida Grande', 'Verdana', 'Geneva', 'Lucid', 'Arial', 'Helvetica', 'Avant Garde', sans-serif" transform="translate(135.858125 56.7855)">(n_low=0, n_nan=0)</text>
   </g>
   <g id="legend_1">
    <g id="patch_7">
     <path d="M 49.38125 345.2 
L 97.69625 345.2 
Q 99.29625 345.2 99.29625 343.6 
L 99.29625 332.6575 
Q 99.29625 331.0575 97.69625 331.0575 
L 49.38125 331.0575 
Q 47.78125 331.0575 47.78125 332.6575 
L 47.78125 343.6 
Q 47.78125 345.2 49.38125 345.2 
z
" style="fill: #ffffff; opacity: 0.8; stroke: #cccccc; stroke-linejoin: miter"/>
    </g>
    <g id="line2d_8">
     <path d="M 50.98125 337.53625 
L 58.98125 337.53625 
L 66.98125 337.53625 
" style="fill: none; stroke-dasharray: 5.55,2.4; stroke-dashoffset: 0; stroke: #ff0000; stroke-opacity: 0.7; stroke-width: 1.5"/>
    </g>
    <g id="text_9">
     <text style="font-size: 8px; font-family: 'DejaVu Sans', 'Bitstream Vera Sans', 'Computer Modern Sans Serif', 'Lucida Grande', 'Verdana', 'Geneva', 'Lucid', 'Arial', 'Helvetica', 'Avant Garde', sans-serif; text-anchor: start" x="73.38125" y="340.33625" transform="rotate(-0 73.38125 340.33625)">r=0.8</text>
    </g>
   </g>
  </g>
  <g id="axes_2">
   <g id="patch_8">
    <path d="M 398.38125 349.2 
L 705.17125 349.2 
L 705.17125 62.7855 
L 398.38125 62.7855 
z
" style="fill: #ffffff"/>
   </g>
   <g id="FillBetweenPolyCollection_2">
    <path d="M 553.760385 75.426217 
L 549.792115 75.426217 
L 549.696424 75.42432 
L 549.616498 75.422422 
L 549.551003 75.420525 
L 549.497971 75.418628 
L 549.455135 75.41673 
L 549.420232 75.414833 
L 549.391225 75.412935 
L 549.366409 75.411038 
L 549.344403 75.409141 
L 549.324044 75.407243 
L 549.304227 75.405346 
L 549.28375 75.403449 
L 549.261193 75.401551 
L 549.234874 75.399654 
L 549.202894 75.397756 
L 549.163244 75.395859 
L 549.113987 75.393962 
L 549.053454 75.392064 
L 548.980469 75.390167 
L 548.894554 75.388269 
L 548.796143 75.386372 
L 548.686758 75.384475 
L 548.569173 75.382577 
L 548.447507 75.38068 
L 548.32724 75.378782 
L 548.215093 75.376885 
L 548.118744 75.374988 
L 548.04637 75.37309 
L 548.006019 75.371193 
L 548.004868 75.369295 
L 548.048448 75.367398 
L 548.139938 75.365501 
L 548.279636 75.363603 
L 548.464685 75.361706 
L 548.689113 75.359809 
L 548.944179 75.357911 
L 549.218976 75.356014 
L 549.501215 75.354116 
L 549.778068 75.352219 
L 550.036963 75.350322 
L 550.266248 75.348424 
L 550.455666 75.346527 
L 550.596616 75.344629 
L 550.682238 75.342732 
L 550.707365 75.340835 
L 550.668406 75.338937 
L 550.56323 75.33704 
L 550.391092 75.335142 
L 550.152643 75.333245 
L 549.850003 75.331348 
L 549.486897 75.32945 
L 549.068802 75.327553 
L 548.603053 75.325656 
L 548.098868 75.323758 
L 547.567232 75.321861 
L 547.02063 75.319963 
L 546.472593 75.318066 
L 545.937073 75.316169 
L 545.427664 75.314271 
L 544.956709 75.312374 
L 544.53434 75.310476 
L 544.167523 75.308579 
L 543.859193 75.306682 
L 543.607534 75.304784 
L 543.405505 75.302887 
L 543.240666 75.300989 
L 543.09533 75.299092 
L 542.947066 75.297195 
L 542.769489 75.295297 
L 542.533247 75.2934 
L 542.207074 75.291502 
L 541.758691 75.289605 
L 541.155378 75.287708 
L 540.363987 75.28581 
L 539.350264 75.283913 
L 538.077411 75.282016 
L 536.503995 75.280118 
L 534.581463 75.278221 
L 532.25177 75.276323 
L 529.445793 75.274426 
L 526.083347 75.272529 
L 522.075684 75.270631 
L 517.331162 75.268734 
L 511.764536 75.266836 
L 505.309741 75.264939 
L 497.935427 75.263042 
L 489.661734 75.261144 
L 480.576133 75.259247 
L 470.845706 75.257349 
L 460.723121 75.255452 
L 450.543924 75.253555 
L 440.713667 75.251657 
L 431.684675 75.24976 
L 423.923826 75.247862 
L 417.874305 75.245965 
L 413.915541 75.244068 
L 412.32625 75.24217 
L 413.255477 75.240273 
L 416.705622 75.238376 
L 686.846878 75.238376 
L 686.846878 75.238376 
L 690.297023 75.240273 
L 691.22625 75.24217 
L 689.636959 75.244068 
L 685.678195 75.245965 
L 679.628674 75.247862 
L 671.867825 75.24976 
L 662.838833 75.251657 
L 653.008576 75.253555 
L 642.829379 75.255452 
L 632.706794 75.257349 
L 622.976367 75.259247 
L 613.890766 75.261144 
L 605.617073 75.263042 
L 598.242759 75.264939 
L 591.787964 75.266836 
L 586.221338 75.268734 
L 581.476816 75.270631 
L 577.469153 75.272529 
L 574.106707 75.274426 
L 571.30073 75.276323 
L 568.971037 75.278221 
L 567.048505 75.280118 
L 565.475089 75.282016 
L 564.202236 75.283913 
L 563.188513 75.28581 
L 562.397122 75.287708 
L 561.793809 75.289605 
L 561.345426 75.291502 
L 561.019253 75.2934 
L 560.783011 75.295297 
L 560.605434 75.297195 
L 560.45717 75.299092 
L 560.311834 75.300989 
L 560.146995 75.302887 
L 559.944966 75.304784 
L 559.693307 75.306682 
L 559.384977 75.308579 
L 559.01816 75.310476 
L 558.595791 75.312374 
L 558.124836 75.314271 
L 557.615427 75.316169 
L 557.079907 75.318066 
L 556.53187 75.319963 
L 555.985268 75.321861 
L 555.453632 75.323758 
L 554.949447 75.325656 
L 554.483698 75.327553 
L 554.065603 75.32945 
L 553.702497 75.331348 
L 553.399857 75.333245 
L 553.161408 75.335142 
L 552.98927 75.33704 
L 552.884094 75.338937 
L 552.845135 75.340835 
L 552.870262 75.342732 
L 552.955884 75.344629 
L 553.096834 75.346527 
L 553.286252 75.348424 
L 553.515537 75.350322 
L 553.774432 75.352219 
L 554.051285 75.354116 
L 554.333524 75.356014 
L 554.608321 75.357911 
L 554.863387 75.359809 
L 555.087815 75.361706 
L 555.272864 75.363603 
L 555.412562 75.365501 
L 555.504052 75.367398 
L 555.547632 75.369295 
L 555.546481 75.371193 
L 555.50613 75.37309 
L 555.433756 75.374988 
L 555.337407 75.376885 
L 555.22526 75.378782 
L 555.104993 75.38068 
L 554.983327 75.382577 
L 554.865742 75.384475 
L 554.756357 75.386372 
L 554.657946 75.388269 
L 554.572031 75.390167 
L 554.499046 75.392064 
L 554.438513 75.393962 
L 554.389256 75.395859 
L 554.349606 75.397756 
L 554.317626 75.399654 
L 554.291307 75.401551 
L 554.26875 75.403449 
L 554.248273 75.405346 
L 554.228456 75.407243 
L 554.208097 75.409141 
L 554.186091 75.411038 
L 554.161275 75.412935 
L 554.132268 75.414833 
L 554.097365 75.41673 
L 554.054529 75.418628 
L 554.001497 75.420525 
L 553.936002 75.422422 
L 553.856076 75.42432 
L 553.760385 75.426217 
z
" clip-path="url(#p6231c6fdd1)" style="fill: #1f77b4; fill-opacity: 0.3"/>
   </g>
   <g id="PathCollection_2">
    <g clip-path="url(#p6231c6fdd1)">
     <use xlink:href="#m6d1f0350d8" x="570.73154" y="75.279507" style="fill: #4682b4; fill-opacity: 0.3; stroke: #4682b4; stroke-opacity: 0.3"/>
     <use xlink:href="#m6d1f0350d8" x="570.965212" y="75.245693" style="fill: #4682b4; fill-opacity: 0.3; stroke: #4682b4; stroke-opacity: 0.3"/>
     <use xlink:href="#m6d1f0350d8" x="527.880188" y="75.240522" style="fill: #4682b4; fill-opacity: 0.3; stroke: #4682b4; stroke-opacity: 0.3"/>
     <use xlink:href="#m6d1f0350d8" x="542.028117" y="75.23934" style="fill: #4682b4; fill-opacity: 0.3; stroke: #4682b4; stroke-opacity: 0.3"/>
     <use xlink:href="#m6d1f0350d8" x="540.580712" y="75.242863" style="fill: #4682b4; fill-opacity: 0.3; stroke: #4682b4; stroke-opacity: 0.3"/>
     <use xlink:href="#m6d1f0350d8" x="548.353002" y="75.262835" style="fill: #4682b4; fill-opacity: 0.3; stroke: #4682b4; stroke-opacity: 0.3"/>
     <use xlink:href="#m6d1f0350d8" x="579.643026" y="75.384855" style="fill: #4682b4; fill-opacity: 0.3; stroke: #4682b4; stroke-opacity: 0.3"/>
     <use xlink:href="#m6d1f0350d8" x="530.175854" y="75.243807" style="fill: #4682b4; fill-opacity: 0.3; stroke: #4682b4; stroke-opacity: 0.3"/>
     <use xlink:href="#m6d1f0350d8" x="539.485372" y="75.23986" style="fill: #4682b4; fill-opacity: 0.3; stroke: #4682b4; stroke-opacity: 0.3"/>
     <use xlink:href="#m6d1f0350d8" x="536.721953" y="75.244891" style="fill: #4682b4; fill-opacity: 0.3; stroke: #4682b4; stroke-opacity: 0.3"/>
     <use xlink:href="#m6d1f0350d8" x="553.575069" y="75.270644" style="fill: #4682b4; fill-opacity: 0.3; stroke: #4682b4; stroke-opacity: 0.3"/>
     <use xlink:href="#m6d1f0350d8" x="573.240278" y="75.240605" style="fill: #4682b4; fill-opacity: 0.3; stroke: #4682b4; stroke-opacity: 0.3"/>
     <use xlink:href="#m6d1f0350d8" x="556.408156" y="75.299771" style="fill: #4682b4; fill-opacity: 0.3; stroke: #4682b4; stroke-opacity: 0.3"/>
     <use xlink:href="#m6d1f0350d8" x="540.140612" y="75.246396" style="fill: #4682b4; fill-opacity: 0.3; stroke: #4682b4; stroke-opacity: 0.3"/>
     <use xlink:href="#m6d1f0350d8" x="546.890274" y="75.238482" style="fill: #4682b4; fill-opacity: 0.3; stroke: #4682b4; stroke-opacity: 0.3"/>
     <use xlink:href="#m6d1f0350d8" x="531.817563" y="75.248475" style="fill: #4682b4; fill-opacity: 0.3; stroke: #4682b4; stroke-opacity: 0.3"/>
     <use xlink:href="#m6d1f0350d8" x="523.900932" y="75.318267" style="fill: #4682b4; fill-opacity: 0.3; stroke: #4682b4; stroke-opacity: 0.3"/>
     <use xlink:href="#m6d1f0350d8" x="567.049276" y="75.243088" style="fill: #4682b4; fill-opacity: 0.3; stroke: #4682b4; stroke-opacity: 0.3"/>
     <use xlink:href="#m6d1f0350d8" x="570.960878" y="75.255052" style="fill: #4682b4; fill-opacity: 0.3; stroke: #4682b4; stroke-opacity: 0.3"/>
     <use xlink:href="#m6d1f0350d8" x="525.655925" y="75.272299" style="fill: #4682b4; fill-opacity: 0.3; stroke: #4682b4; stroke-opacity: 0.3"/>
     <use xlink:href="#m6d1f0350d8" x="530.216976" y="75.310206" style="fill: #4682b4; fill-opacity: 0.3; stroke: #4682b4; stroke-opacity: 0.3"/>
     <use xlink:href="#m6d1f0350d8" x="579.583871" y="75.242862" style="fill: #4682b4; fill-opacity: 0.3; stroke: #4682b4; stroke-opacity: 0.3"/>
     <use xlink:href="#m6d1f0350d8" x="566.168941" y="75.265178" style="fill: #4682b4; fill-opacity: 0.3; stroke: #4682b4; stroke-opacity: 0.3"/>
     <use xlink:href="#m6d1f0350d8" x="556.451947" y="75.23902" style="fill: #4682b4; fill-opacity: 0.3; stroke: #4682b4; stroke-opacity: 0.3"/>
     <use xlink:href="#m6d1f0350d8" x="557.815483" y="75.245582" style="fill: #4682b4; fill-opacity: 0.3; stroke: #4682b4; stroke-opacity: 0.3"/>
     <use xlink:href="#m6d1f0350d8" x="548.05485" y="75.274359" style="fill: #4682b4; fill-opacity: 0.3; stroke: #4682b4; stroke-opacity: 0.3"/>
     <use xlink:href="#m6d1f0350d8" x="537.191105" y="75.243748" style="fill: #4682b4; fill-opacity: 0.3; stroke: #4682b4; stroke-opacity: 0.3"/>
     <use xlink:href="#m6d1f0350d8" x="561.935599" y="75.239857" style="fill: #4682b4; fill-opacity: 0.3; stroke: #4682b4; stroke-opacity: 0.3"/>
     <use xlink:href="#m6d1f0350d8" x="543.296542" y="75.238856" style="fill: #4682b4; fill-opacity: 0.3; stroke: #4682b4; stroke-opacity: 0.3"/>
     <use xlink:href="#m6d1f0350d8" x="558.287332" y="75.240631" style="fill: #4682b4; fill-opacity: 0.3; stroke: #4682b4; stroke-opacity: 0.3"/>
     <use xlink:href="#m6d1f0350d8" x="558.088795" y="75.239141" style="fill: #4682b4; fill-opacity: 0.3; stroke: #4682b4; stroke-opacity: 0.3"/>
     <use xlink:href="#m6d1f0350d8" x="526.479678" y="75.248375" style="fill: #4682b4; fill-opacity: 0.3; stroke: #4682b4; stroke-opacity: 0.3"/>
     <use xlink:href="#m6d1f0350d8" x="536.94318" y="75.243015" style="fill: #4682b4; fill-opacity: 0.3; stroke: #4682b4; stroke-opacity: 0.3"/>
     <use xlink:href="#m6d1f0350d8" x="534.213398" y="75.240217" style="fill: #4682b4; fill-opacity: 0.3; stroke: #4682b4; stroke-opacity: 0.3"/>
     <use xlink:href="#m6d1f0350d8" x="568.460905" y="75.238378" style="fill: #4682b4; fill-opacity: 0.3; stroke: #4682b4; stroke-opacity: 0.3"/>
     <use xlink:href="#m6d1f0350d8" x="557.955848" y="75.252145" style="fill: #4682b4; fill-opacity: 0.3; stroke: #4682b4; stroke-opacity: 0.3"/>
     <use xlink:href="#m6d1f0350d8" x="539.122478" y="75.246906" style="fill: #4682b4; fill-opacity: 0.3; stroke: #4682b4; stroke-opacity: 0.3"/>
     <use xlink:href="#m6d1f0350d8" x="528.885325" y="75.263027" style="fill: #4682b4; fill-opacity: 0.3; stroke: #4682b4; stroke-opacity: 0.3"/>
     <use xlink:href="#m6d1f0350d8" x="539.678122" y="75.26039" style="fill: #4682b4; fill-opacity: 0.3; stroke: #4682b4; stroke-opacity: 0.3"/>
     <use xlink:href="#m6d1f0350d8" x="550.465787" y="75.241137" style="fill: #4682b4; fill-opacity: 0.3; stroke: #4682b4; stroke-opacity: 0.3"/>
     <use xlink:href="#m6d1f0350d8" x="565.253597" y="75.245515" style="fill: #4682b4; fill-opacity: 0.3; stroke: #4682b4; stroke-opacity: 0.3"/>
     <use xlink:href="#m6d1f0350d8" x="555.103182" y="75.238593" style="fill: #4682b4; fill-opacity: 0.3; stroke: #4682b4; stroke-opacity: 0.3"/>
     <use xlink:href="#m6d1f0350d8" x="529.829876" y="75.23986" style="fill: #4682b4; fill-opacity: 0.3; stroke: #4682b4; stroke-opacity: 0.3"/>
     <use xlink:href="#m6d1f0350d8" x="556.369097" y="75.24666" style="fill: #4682b4; fill-opacity: 0.3; stroke: #4682b4; stroke-opacity: 0.3"/>
     <use xlink:href="#m6d1f0350d8" x="569.05756" y="75.238774" style="fill: #4682b4; fill-opacity: 0.3; stroke: #4682b4; stroke-opacity: 0.3"/>
     <use xlink:href="#m6d1f0350d8" x="575.90011" y="75.239986" style="fill: #4682b4; fill-opacity: 0.3; stroke: #4682b4; stroke-opacity: 0.3"/>
     <use xlink:href="#m6d1f0350d8" x="576.756708" y="75.426217" style="fill: #4682b4; fill-opacity: 0.3; stroke: #4682b4; stroke-opacity: 0.3"/>
     <use xlink:href="#m6d1f0350d8" x="571.991188" y="75.239426" style="fill: #4682b4; fill-opacity: 0.3; stroke: #4682b4; stroke-opacity: 0.3"/>
     <use xlink:href="#m6d1f0350d8" x="549.071258" y="75.290823" style="fill: #4682b4; fill-opacity: 0.3; stroke: #4682b4; stroke-opacity: 0.3"/>
     <use xlink:href="#m6d1f0350d8" x="536.681409" y="75.238912" style="fill: #4682b4; fill-opacity: 0.3; stroke: #4682b4; stroke-opacity: 0.3"/>
     <use xlink:href="#m6d1f0350d8" x="558.329969" y="75.240944" style="fill: #4682b4; fill-opacity: 0.3; stroke: #4682b4; stroke-opacity: 0.3"/>
     <use xlink:href="#m6d1f0350d8" x="530.756872" y="75.240201" style="fill: #4682b4; fill-opacity: 0.3; stroke: #4682b4; stroke-opacity: 0.3"/>
     <use xlink:href="#m6d1f0350d8" x="550.06849" y="75.244214" style="fill: #4682b4; fill-opacity: 0.3; stroke: #4682b4; stroke-opacity: 0.3"/>
     <use xlink:href="#m6d1f0350d8" x="525.199025" y="75.265079" style="fill: #4682b4; fill-opacity: 0.3; stroke: #4682b4; stroke-opacity: 0.3"/>
     <use xlink:href="#m6d1f0350d8" x="543.551761" y="75.242537" style="fill: #4682b4; fill-opacity: 0.3; stroke: #4682b4; stroke-opacity: 0.3"/>
     <use xlink:href="#m6d1f0350d8" x="545.116867" y="75.239749" style="fill: #4682b4; fill-opacity: 0.3; stroke: #4682b4; stroke-opacity: 0.3"/>
     <use xlink:href="#m6d1f0350d8" x="534.088416" y="75.239463" style="fill: #4682b4; fill-opacity: 0.3; stroke: #4682b4; stroke-opacity: 0.3"/>
     <use xlink:href="#m6d1f0350d8" x="533.650488" y="75.245342" style="fill: #4682b4; fill-opacity: 0.3; stroke: #4682b4; stroke-opacity: 0.3"/>
     <use xlink:href="#m6d1f0350d8" x="563.396892" y="75.244866" style="fill: #4682b4; fill-opacity: 0.3; stroke: #4682b4; stroke-opacity: 0.3"/>
     <use xlink:href="#m6d1f0350d8" x="553.696517" y="75.241576" style="fill: #4682b4; fill-opacity: 0.3; stroke: #4682b4; stroke-opacity: 0.3"/>
     <use xlink:href="#m6d1f0350d8" x="573.002924" y="75.246427" style="fill: #4682b4; fill-opacity: 0.3; stroke: #4682b4; stroke-opacity: 0.3"/>
     <use xlink:href="#m6d1f0350d8" x="568.458482" y="75.239418" style="fill: #4682b4; fill-opacity: 0.3; stroke: #4682b4; stroke-opacity: 0.3"/>
     <use xlink:href="#m6d1f0350d8" x="528.994277" y="75.238593" style="fill: #4682b4; fill-opacity: 0.3; stroke: #4682b4; stroke-opacity: 0.3"/>
     <use xlink:href="#m6d1f0350d8" x="572.478521" y="75.241542" style="fill: #4682b4; fill-opacity: 0.3; stroke: #4682b4; stroke-opacity: 0.3"/>
     <use xlink:href="#m6d1f0350d8" x="559.666438" y="75.265072" style="fill: #4682b4; fill-opacity: 0.3; stroke: #4682b4; stroke-opacity: 0.3"/>
     <use xlink:href="#m6d1f0350d8" x="570.729494" y="75.238798" style="fill: #4682b4; fill-opacity: 0.3; stroke: #4682b4; stroke-opacity: 0.3"/>
     <use xlink:href="#m6d1f0350d8" x="537.68649" y="75.241702" style="fill: #4682b4; fill-opacity: 0.3; stroke: #4682b4; stroke-opacity: 0.3"/>
     <use xlink:href="#m6d1f0350d8" x="549.283414" y="75.405126" style="fill: #4682b4; fill-opacity: 0.3; stroke: #4682b4; stroke-opacity: 0.3"/>
     <use xlink:href="#m6d1f0350d8" x="545.680492" y="75.239416" style="fill: #4682b4; fill-opacity: 0.3; stroke: #4682b4; stroke-opacity: 0.3"/>
     <use xlink:href="#m6d1f0350d8" x="532.556744" y="75.239442" style="fill: #4682b4; fill-opacity: 0.3; stroke: #4682b4; stroke-opacity: 0.3"/>
     <use xlink:href="#m6d1f0350d8" x="548.284027" y="75.243812" style="fill: #4682b4; fill-opacity: 0.3; stroke: #4682b4; stroke-opacity: 0.3"/>
     <use xlink:href="#m6d1f0350d8" x="529.198789" y="75.239234" style="fill: #4682b4; fill-opacity: 0.3; stroke: #4682b4; stroke-opacity: 0.3"/>
     <use xlink:href="#m6d1f0350d8" x="575.130437" y="75.239486" style="fill: #4682b4; fill-opacity: 0.3; stroke: #4682b4; stroke-opacity: 0.3"/>
     <use xlink:href="#m6d1f0350d8" x="537.580825" y="75.239376" style="fill: #4682b4; fill-opacity: 0.3; stroke: #4682b4; stroke-opacity: 0.3"/>
     <use xlink:href="#m6d1f0350d8" x="575.941587" y="75.238619" style="fill: #4682b4; fill-opacity: 0.3; stroke: #4682b4; stroke-opacity: 0.3"/>
     <use xlink:href="#m6d1f0350d8" x="525.386922" y="75.23989" style="fill: #4682b4; fill-opacity: 0.3; stroke: #4682b4; stroke-opacity: 0.3"/>
     <use xlink:href="#m6d1f0350d8" x="548.132428" y="75.239034" style="fill: #4682b4; fill-opacity: 0.3; stroke: #4682b4; stroke-opacity: 0.3"/>
     <use xlink:href="#m6d1f0350d8" x="572.949064" y="75.240039" style="fill: #4682b4; fill-opacity: 0.3; stroke: #4682b4; stroke-opacity: 0.3"/>
     <use xlink:href="#m6d1f0350d8" x="573.681848" y="75.365707" style="fill: #4682b4; fill-opacity: 0.3; stroke: #4682b4; stroke-opacity: 0.3"/>
     <use xlink:href="#m6d1f0350d8" x="569.688667" y="75.238428" style="fill: #4682b4; fill-opacity: 0.3; stroke: #4682b4; stroke-opacity: 0.3"/>
     <use xlink:href="#m6d1f0350d8" x="544.918415" y="75.251328" style="fill: #4682b4; fill-opacity: 0.3; stroke: #4682b4; stroke-opacity: 0.3"/>
     <use xlink:href="#m6d1f0350d8" x="560.848795" y="75.238721" style="fill: #4682b4; fill-opacity: 0.3; stroke: #4682b4; stroke-opacity: 0.3"/>
     <use xlink:href="#m6d1f0350d8" x="557.490913" y="75.241354" style="fill: #4682b4; fill-opacity: 0.3; stroke: #4682b4; stroke-opacity: 0.3"/>
     <use xlink:href="#m6d1f0350d8" x="562.089398" y="75.238376" style="fill: #4682b4; fill-opacity: 0.3; stroke: #4682b4; stroke-opacity: 0.3"/>
     <use xlink:href="#m6d1f0350d8" x="544.900914" y="75.242925" style="fill: #4682b4; fill-opacity: 0.3; stroke: #4682b4; stroke-opacity: 0.3"/>
     <use xlink:href="#m6d1f0350d8" x="530.648321" y="75.241652" style="fill: #4682b4; fill-opacity: 0.3; stroke: #4682b4; stroke-opacity: 0.3"/>
     <use xlink:href="#m6d1f0350d8" x="563.304923" y="75.239714" style="fill: #4682b4; fill-opacity: 0.3; stroke: #4682b4; stroke-opacity: 0.3"/>
     <use xlink:href="#m6d1f0350d8" x="557.481578" y="75.239465" style="fill: #4682b4; fill-opacity: 0.3; stroke: #4682b4; stroke-opacity: 0.3"/>
     <use xlink:href="#m6d1f0350d8" x="543.208248" y="75.247784" style="fill: #4682b4; fill-opacity: 0.3; stroke: #4682b4; stroke-opacity: 0.3"/>
     <use xlink:href="#m6d1f0350d8" x="579.611576" y="75.239419" style="fill: #4682b4; fill-opacity: 0.3; stroke: #4682b4; stroke-opacity: 0.3"/>
     <use xlink:href="#m6d1f0350d8" x="564.411481" y="75.239118" style="fill: #4682b4; fill-opacity: 0.3; stroke: #4682b4; stroke-opacity: 0.3"/>
     <use xlink:href="#m6d1f0350d8" x="568.951624" y="75.23892" style="fill: #4682b4; fill-opacity: 0.3; stroke: #4682b4; stroke-opacity: 0.3"/>
     <use xlink:href="#m6d1f0350d8" x="551.466643" y="75.2386" style="fill: #4682b4; fill-opacity: 0.3; stroke: #4682b4; stroke-opacity: 0.3"/>
     <use xlink:href="#m6d1f0350d8" x="545.07216" y="75.238569" style="fill: #4682b4; fill-opacity: 0.3; stroke: #4682b4; stroke-opacity: 0.3"/>
     <use xlink:href="#m6d1f0350d8" x="561.208396" y="75.238597" style="fill: #4682b4; fill-opacity: 0.3; stroke: #4682b4; stroke-opacity: 0.3"/>
     <use xlink:href="#m6d1f0350d8" x="539.080715" y="75.239952" style="fill: #4682b4; fill-opacity: 0.3; stroke: #4682b4; stroke-opacity: 0.3"/>
     <use xlink:href="#m6d1f0350d8" x="576.766667" y="75.299653" style="fill: #4682b4; fill-opacity: 0.3; stroke: #4682b4; stroke-opacity: 0.3"/>
     <use xlink:href="#m6d1f0350d8" x="524.447173" y="75.23957" style="fill: #4682b4; fill-opacity: 0.3; stroke: #4682b4; stroke-opacity: 0.3"/>
     <use xlink:href="#m6d1f0350d8" x="554.338951" y="75.306939" style="fill: #4682b4; fill-opacity: 0.3; stroke: #4682b4; stroke-opacity: 0.3"/>
     <use xlink:href="#m6d1f0350d8" x="557.999075" y="75.238642" style="fill: #4682b4; fill-opacity: 0.3; stroke: #4682b4; stroke-opacity: 0.3"/>
     <use xlink:href="#m6d1f0350d8" x="531.430228" y="75.23849" style="fill: #4682b4; fill-opacity: 0.3; stroke: #4682b4; stroke-opacity: 0.3"/>
     <use xlink:href="#m6d1f0350d8" x="569.736272" y="75.238961" style="fill: #4682b4; fill-opacity: 0.3; stroke: #4682b4; stroke-opacity: 0.3"/>
     <use xlink:href="#m6d1f0350d8" x="576.89391" y="75.242021" style="fill: #4682b4; fill-opacity: 0.3; stroke: #4682b4; stroke-opacity: 0.3"/>
     <use xlink:href="#m6d1f0350d8" x="547.663305" y="75.239382" style="fill: #4682b4; fill-opacity: 0.3; stroke: #4682b4; stroke-opacity: 0.3"/>
     <use xlink:href="#m6d1f0350d8" x="529.52533" y="75.240207" style="fill: #4682b4; fill-opacity: 0.3; stroke: #4682b4; stroke-opacity: 0.3"/>
     <use xlink:href="#m6d1f0350d8" x="571.413027" y="75.241361" style="fill: #4682b4; fill-opacity: 0.3; stroke: #4682b4; stroke-opacity: 0.3"/>
     <use xlink:href="#m6d1f0350d8" x="572.538539" y="75.241321" style="fill: #4682b4; fill-opacity: 0.3; stroke: #4682b4; stroke-opacity: 0.3"/>
     <use xlink:href="#m6d1f0350d8" x="533.342897" y="75.23874" style="fill: #4682b4; fill-opacity: 0.3; stroke: #4682b4; stroke-opacity: 0.3"/>
     <use xlink:href="#m6d1f0350d8" x="557.461426" y="75.239077" style="fill: #4682b4; fill-opacity: 0.3; stroke: #4682b4; stroke-opacity: 0.3"/>
     <use xlink:href="#m6d1f0350d8" x="528.009571" y="75.239237" style="fill: #4682b4; fill-opacity: 0.3; stroke: #4682b4; stroke-opacity: 0.3"/>
     <use xlink:href="#m6d1f0350d8" x="538.658419" y="75.365228" style="fill: #4682b4; fill-opacity: 0.3; stroke: #4682b4; stroke-opacity: 0.3"/>
     <use xlink:href="#m6d1f0350d8" x="531.759326" y="75.249593" style="fill: #4682b4; fill-opacity: 0.3; stroke: #4682b4; stroke-opacity: 0.3"/>
     <use xlink:href="#m6d1f0350d8" x="554.329697" y="75.261823" style="fill: #4682b4; fill-opacity: 0.3; stroke: #4682b4; stroke-opacity: 0.3"/>
    </g>
   </g>
   <g id="matplotlib.axis_3"/>
   <g id="matplotlib.axis_4">
    <g id="ytick_7">
     <g id="line2d_9">
      <g>
       <use xlink:href="#m4677f0c5ab" x="398.38125" y="324.294391" style="stroke: #000000; stroke-width: 0.8"/>
      </g>
     </g>
     <g id="text_10">
      <text style="font-size: 10px; font-family: 'DejaVu Sans', 'Bitstream Vera Sans', 'Computer Modern Sans Serif', 'Lucida Grande', 'Verdana', 'Geneva', 'Lucid', 'Arial', 'Helvetica', 'Avant Garde', sans-serif; text-anchor: end" x="391.38125" y="328.09361" transform="rotate(-0 391.38125 328.09361)">0.0</text>
     </g>
    </g>
    <g id="ytick_8">
     <g id="line2d_10">
      <g>
       <use xlink:href="#m4677f0c5ab" x="398.38125" y="274.483174" style="stroke: #000000; stroke-width: 0.8"/>
      </g>
     </g>
     <g id="text_11">
      <text style="font-size: 10px; font-family: 'DejaVu Sans', 'Bitstream Vera Sans', 'Computer Modern Sans Serif', 'Lucida Grande', 'Verdana', 'Geneva', 'Lucid', 'Arial', 'Helvetica', 'Avant Garde', sans-serif; text-anchor: end" x="391.38125" y="278.282393" transform="rotate(-0 391.38125 278.282393)">0.2</text>
     </g>
    </g>
    <g id="ytick_9">
     <g id="line2d_11">
      <g>
       <use xlink:href="#m4677f0c5ab" x="398.38125" y="224.671957" style="stroke: #000000; stroke-width: 0.8"/>
      </g>
     </g>
     <g id="text_12">
      <text style="font-size: 10px; font-family: 'DejaVu Sans', 'Bitstream Vera Sans', 'Computer Modern Sans Serif', 'Lucida Grande', 'Verdana', 'Geneva', 'Lucid', 'Arial', 'Helvetica', 'Avant Garde', sans-serif; text-anchor: end" x="391.38125" y="228.471175" transform="rotate(-0 391.38125 228.471175)">0.4</text>
     </g>
    </g>
    <g id="ytick_10">
     <g id="line2d_12">
      <g>
       <use xlink:href="#m4677f0c5ab" x="398.38125" y="174.860739" style="stroke: #000000; stroke-width: 0.8"/>
      </g>
     </g>
     <g id="text_13">
      <text style="font-size: 10px; font-family: 'DejaVu Sans', 'Bitstream Vera Sans', 'Computer Modern Sans Serif', 'Lucida Grande', 'Verdana', 'Geneva', 'Lucid', 'Arial', 'Helvetica', 'Avant Garde', sans-serif; text-anchor: end" x="391.38125" y="178.659958" transform="rotate(-0 391.38125 178.659958)">0.6</text>
     </g>
    </g>
    <g id="ytick_11">
     <g id="line2d_13">
      <g>
       <use xlink:href="#m4677f0c5ab" x="398.38125" y="125.049522" style="stroke: #000000; stroke-width: 0.8"/>
      </g>
     </g>
     <g id="text_14">
      <text style="font-size: 10px; font-family: 'DejaVu Sans', 'Bitstream Vera Sans', 'Computer Modern Sans Serif', 'Lucida Grande', 'Verdana', 'Geneva', 'Lucid', 'Arial', 'Helvetica', 'Avant Garde', sans-serif; text-anchor: end" x="391.38125" y="128.84874" transform="rotate(-0 391.38125 128.84874)">0.8</text>
     </g>
    </g>
    <g id="ytick_12">
     <g id="line2d_14">
      <g>
       <use xlink:href="#m4677f0c5ab" x="398.38125" y="75.238304" style="stroke: #000000; stroke-width: 0.8"/>
      </g>
     </g>
     <g id="text_15">
      <text style="font-size: 10px; font-family: 'DejaVu Sans', 'Bitstream Vera Sans', 'Computer Modern Sans Serif', 'Lucida Grande', 'Verdana', 'Geneva', 'Lucid', 'Arial', 'Helvetica', 'Avant Garde', sans-serif; text-anchor: end" x="391.38125" y="79.037523" transform="rotate(-0 391.38125 79.037523)">1.0</text>
     </g>
    </g>
    <g id="text_16">
     <text style="font-size: 10px; font-family: 'DejaVu Sans', 'Bitstream Vera Sans', 'Computer Modern Sans Serif', 'Lucida Grande', 'Verdana', 'Geneva', 'Lucid', 'Arial', 'Helvetica', 'Avant Garde', sans-serif; text-anchor: middle" x="369.398438" y="205.99275" transform="rotate(-90 369.398438 205.99275)">r</text>
    </g>
   </g>
   <g id="LineCollection_5">
    <path d="M 482.05125 75.238376 
L 621.50125 75.238376 
" clip-path="url(#p6231c6fdd1)" style="fill: none; stroke: #1f77b4; stroke-width: 1.5"/>
   </g>
   <g id="LineCollection_6">
    <path d="M 482.05125 75.426217 
L 621.50125 75.426217 
" clip-path="url(#p6231c6fdd1)" style="fill: none; stroke: #1f77b4; stroke-width: 1.5"/>
   </g>
   <g id="LineCollection_7">
    <path d="M 551.77625 75.426217 
L 551.77625 75.238376 
" clip-path="url(#p6231c6fdd1)" style="fill: none; stroke: #1f77b4; stroke-width: 1.5"/>
   </g>
   <g id="LineCollection_8">
    <path d="M 482.05125 75.241321 
L 621.50125 75.241321 
" clip-path="url(#p6231c6fdd1)" style="fill: none; stroke: #1f77b4; stroke-width: 1.5"/>
   </g>
   <g id="line2d_15">
    <path d="M 398.38125 125.049522 
L 705.17125 125.049522 
" clip-path="url(#p6231c6fdd1)" style="fill: none; stroke-dasharray: 5.55,2.4; stroke-dashoffset: 0; stroke: #ff0000; stroke-opacity: 0.7; stroke-width: 1.5"/>
   </g>
   <g id="patch_9">
    <path d="M 398.38125 349.2 
L 398.38125 62.7855 
" style="fill: none; stroke: #000000; stroke-width: 0.8; stroke-linejoin: miter; stroke-linecap: square"/>
   </g>
   <g id="patch_10">
    <path d="M 705.17125 349.2 
L 705.17125 62.7855 
" style="fill: none; stroke: #000000; stroke-width: 0.8; stroke-linejoin: miter; stroke-linecap: square"/>
   </g>
   <g id="patch_11">
    <path d="M 398.38125 349.2 
L 705.17125 349.2 
" style="fill: none; stroke: #000000; stroke-width: 0.8; stroke-linejoin: miter; stroke-linecap: square"/>
   </g>
   <g id="patch_12">
    <path d="M 398.38125 62.7855 
L 705.17125 62.7855 
" style="fill: none; stroke: #000000; stroke-width: 0.8; stroke-linejoin: miter; stroke-linecap: square"/>
   </g>
   <g id="text_17">
    <text style="font-size: 12px; font-family: 'DejaVu Sans', 'Bitstream Vera Sans', 'Computer Modern Sans Serif', 'Lucida Grande', 'Verdana', 'Geneva', 'Lucid', 'Arial', 'Helvetica', 'Avant Garde', sans-serif" transform="translate(532.093438 43.014375)">by_cre</text>
    <text style="font-size: 12px; font-family: 'DejaVu Sans', 'Bitstream Vera Sans', 'Computer Modern Sans Serif', 'Lucida Grande', 'Verdana', 'Geneva', 'Lucid', 'Arial', 'Helvetica', 'Avant Garde', sans-serif" transform="translate(490.458125 56.7855)">(n_low=0, n_nan=1)</text>
   </g>
   <g id="legend_2">
    <g id="patch_13">
     <path d="M 403.98125 345.2 
L 452.29625 345.2 
Q 453.89625 345.2 453.89625 343.6 
L 453.89625 332.6575 
Q 453.89625 331.0575 452.29625 331.0575 
L 403.98125 331.0575 
Q 402.38125 331.0575 402.38125 332.6575 
L 402.38125 343.6 
Q 402.38125 345.2 403.98125 345.2 
z
" style="fill: #ffffff; opacity: 0.8; stroke: #cccccc; stroke-linejoin: miter"/>
    </g>
    <g id="line2d_16">
     <path d="M 405.58125 337.53625 
L 413.58125 337.53625 
L 421.58125 337.53625 
" style="fill: none; stroke-dasharray: 5.55,2.4; stroke-dashoffset: 0; stroke: #ff0000; stroke-opacity: 0.7; stroke-width: 1.5"/>
    </g>
    <g id="text_18">
     <text style="font-size: 8px; font-family: 'DejaVu Sans', 'Bitstream Vera Sans', 'Computer Modern Sans Serif', 'Lucida Grande', 'Verdana', 'Geneva', 'Lucid', 'Arial', 'Helvetica', 'Avant Garde', sans-serif; text-anchor: start" x="427.98125" y="340.33625" transform="rotate(-0 427.98125 340.33625)">r=0.8</text>
    </g>
   </g>
  </g>
  <g id="text_19">
   <text style="font-size: 13px; font-family: 'DejaVu Sans', 'Bitstream Vera Sans', 'Computer Modern Sans Serif', 'Lucida Grande', 'Verdana', 'Geneva', 'Lucid', 'Arial', 'Helvetica', 'Avant Garde', sans-serif; text-anchor: middle" x="355.97125" y="17.077969" transform="rotate(-0 355.97125 17.077969)">cohen_obsingle_zinb_phantom -- Pearson r (mu vs mean UMI)</text>
  </g>
 </g>
 <defs>
  <clipPath id="p72d7137e5c">
   <rect x="43.78125" y="62.7855" width="306.79" height="286.4145"/>
  </clipPath>
  <clipPath id="p6231c6fdd1">
   <rect x="398.38125" y="62.7855" width="306.79" height="286.4145"/>
  </clipPath>
 </defs>
</svg>
